<?xml version="1.0" standalone="no"?>
<!DOCTYPE svg PUBLIC "-//W3C//DTD SVG 20010904//EN"
 "http://www.w3.org/TR/2001/REC-SVG-20010904/DTD/svg10.dtd">
<svg version="1.0" xmlns="http://www.w3.org/2000/svg"
 width="500.000000pt" height="500.000000pt" viewBox="0 0 500.000000 500.000000"
 preserveAspectRatio="xMidYMid meet">

<g transform="translate(0.000000,500.000000) scale(0.100000,-0.100000)"
fill="#000000" stroke="none">
<path d="M1992 2933 l3 -88 90 0 90 0 0 85 0 85 -93 3 -93 3 3 -88z"/>
<path d="M1140 2771 c-62 -14 -86 -28 -124 -72 l-36 -43 0 52 0 52 -90 0 -90
0 0 -355 0 -355 95 0 94 0 3 256 3 256 33 29 c63 57 159 31 182 -49 5 -20 10
-139 10 -264 l0 -228 90 0 90 0 0 230 c0 254 7 292 59 323 33 19 92 22 122 7
42 -23 49 -68 49 -321 l0 -239 96 0 96 0 -4 278 c-3 265 -4 279 -26 324 -39
79 -115 122 -216 122 -71 -1 -116 -20 -163 -72 l-31 -34 -37 40 c-49 55 -130
79 -205 63z"/>
<path d="M2700 2771 c-62 -14 -86 -28 -124 -72 l-36 -43 0 52 0 52 -90 0 -90
0 0 -355 0 -355 95 0 94 0 3 256 3 256 33 29 c63 57 159 31 182 -49 5 -20 10
-139 10 -264 l0 -228 90 0 90 0 0 230 c0 254 7 292 59 323 34 20 79 22 116 5
49 -22 55 -58 55 -319 l0 -239 95 0 95 0 0 244 c0 134 -5 268 -10 297 -21 114
-107 182 -230 182 -75 0 -119 -18 -167 -71 l-31 -34 -37 40 c-49 55 -130 79
-205 63z"/>
<path d="M1990 2405 l0 -355 95 0 95 0 0 355 0 355 -95 0 -95 0 0 -355z"/>
<path d="M3550 2495 c0 -215 3 -273 16 -312 32 -96 108 -147 219 -147 84 0
150 27 195 82 l30 37 0 -53 0 -52 90 0 90 0 0 355 0 355 -95 0 -95 0 0 -225
c0 -243 -4 -269 -53 -314 -53 -48 -166 -36 -199 22 -9 16 -14 92 -16 270 l-4
247 -89 0 -89 0 0 -265z"/>
</g>
</svg>
